<?xml version="1.0" encoding="utf-8"?>
<svg viewBox="123.212 169.594 84.248 36.063" width="84.248" height="36.063" xmlns="http://www.w3.org/2000/svg">
  <g>
    <g>
      <g>
        <path d="M 15.453125 0.40625 C 12.816406 0.40625 10.273438 0 7.828125 -0.8125 C 5.378906 -1.632812 3.453125 -2.695312 2.046875 -4 L 3.90625 -7.90625 C 5.238281 -6.695312 6.945312 -5.71875 9.03125 -4.96875 C 11.113281 -4.21875 13.253906 -3.84375 15.453125 -3.84375 C 18.347656 -3.84375 20.507812 -4.332031 21.9375 -5.3125 C 23.375 -6.300781 24.09375 -7.613281 24.09375 -9.25 C 24.09375 -10.445312 23.703125 -11.421875 22.921875 -12.171875 C 22.140625 -12.921875 21.171875 -13.492188 20.015625 -13.890625 C 18.867188 -14.296875 17.25 -14.75 15.15625 -15.25 C 12.519531 -15.882812 10.390625 -16.515625 8.765625 -17.140625 C 7.148438 -17.773438 5.769531 -18.75 4.625 -20.0625 C 3.476562 -21.382812 2.90625 -23.164062 2.90625 -25.40625 C 2.90625 -27.269531 3.394531 -28.953125 4.375 -30.453125 C 5.351562 -31.953125 6.84375 -33.148438 8.84375 -34.046875 C 10.84375 -34.953125 13.328125 -35.40625 16.296875 -35.40625 C 18.367188 -35.40625 20.40625 -35.132812 22.40625 -34.59375 C 24.40625 -34.0625 26.117188 -33.296875 27.546875 -32.296875 L 25.90625 -28.296875 C 24.4375 -29.234375 22.867188 -29.941406 21.203125 -30.421875 C 19.535156 -30.910156 17.898438 -31.15625 16.296875 -31.15625 C 13.460938 -31.15625 11.335938 -30.632812 9.921875 -29.59375 C 8.503906 -28.5625 7.796875 -27.226562 7.796875 -25.59375 C 7.796875 -24.394531 8.195312 -23.421875 9 -22.671875 C 9.800781 -21.921875 10.789062 -21.335938 11.96875 -20.921875 C 13.15625 -20.503906 14.765625 -20.0625 16.796875 -19.59375 C 19.429688 -18.96875 21.546875 -18.335938 23.140625 -17.703125 C 24.742188 -17.066406 26.117188 -16.097656 27.265625 -14.796875 C 28.421875 -13.492188 29 -11.742188 29 -9.546875 C 29 -7.710938 28.5 -6.035156 27.5 -4.515625 C 26.5 -3.003906 24.984375 -1.804688 22.953125 -0.921875 C 20.921875 -0.0351562 18.421875 0.40625 15.453125 0.40625 Z M 15.453125 0.40625" transform="translate(178.46 205.25)" style="fill: rgb(35, 55, 77);"/>
      </g>
    </g>
  </g>
  <g fill="#1089FF">
    <g>
      <g>
        <path d="M 20.90625 0.40625 C 17.40625 0.40625 14.242188 -0.367188 11.421875 -1.921875 C 8.609375 -3.472656 6.398438 -5.609375 4.796875 -8.328125 C 3.203125 -11.046875 2.40625 -14.101562 2.40625 -17.5 C 2.40625 -20.894531 3.203125 -23.953125 4.796875 -26.671875 C 6.398438 -29.390625 8.617188 -31.523438 11.453125 -33.078125 C 14.285156 -34.628906 17.453125 -35.40625 20.953125 -35.40625 C 23.679688 -35.40625 26.175781 -34.945312 28.4375 -34.03125 C 30.707031 -33.113281 32.644531 -31.753906 34.25 -29.953125 L 31 -26.796875 C 28.363281 -29.566406 25.082031 -30.953125 21.15625 -30.953125 C 18.550781 -30.953125 16.195312 -30.367188 14.09375 -29.203125 C 12 -28.035156 10.359375 -26.425781 9.171875 -24.375 C 7.992188 -22.320312 7.40625 -20.03125 7.40625 -17.5 C 7.40625 -14.96875 7.992188 -12.675781 9.171875 -10.625 C 10.359375 -8.570312 12 -6.960938 14.09375 -5.796875 C 16.195312 -4.628906 18.550781 -4.046875 21.15625 -4.046875 C 25.050781 -4.046875 28.332031 -5.445312 31 -8.25 L 34.25 -5.09375 C 32.644531 -3.300781 30.703125 -1.9375 28.421875 -1 C 26.140625 -0.0625 23.632812 0.40625 20.90625 0.40625 Z M 20.90625 0.40625" transform="translate(151.348 205)"/>
      </g>
    </g>
  </g>
  <g>
    <g>
      <g>
        <path d="M 37.703125 0 L 37.65625 -25.5 L 25 -4.25 L 22.703125 -4.25 L 10.046875 -25.34375 L 10.046875 0 L 5.25 0 L 5.25 -35 L 9.34375 -35 L 23.953125 -10.40625 L 38.34375 -35 L 42.453125 -35 L 42.5 0 Z M 37.703125 0" transform="translate(117.962 205.5)" style="fill: rgb(35, 55, 77);"/>
      </g>
    </g>
  </g>
</svg>